<svg xmlns="http://www.w3.org/2000/svg" xmlns:xlink="http://www.w3.org/1999/xlink" width="100%" height="100%" viewBox="0 0 1080 580" preserveAspectRatio="xMinYMin meet" ><rect id="svgEditorBackground" x="0" y="0" width="1080" height="580" style="fill: none; stroke: none;"/><circle id="e1_circle" cx="528.181" cy="284.822" style="fill:#000000;stroke:black;stroke-width:0px" r="253.87" transform="matrix(1.12493 0 0 1.12493 -68.9927 -31.5783)"/><text style="fill:black;font-family:Arial;font-size:20px;font-weight:bold" x="336.9" y="253.78" id="e2_texte"></text><path d="M-0.22312048453415867,-5.050189l0,0a0.7500000000000002,0.7500000000000002,0,0,0,-1,0.6000000000000002v2.3a0.7000000000000002,0.7000000000000002,0,0,1,-0.5,0.7000000000000002a0.7000000000000002,0.7000000000000002,0,0,1,0.5,0.7000000000000002v2.3a0.7500000000000002,0.7500000000000002,0,0,0,1,0.6000000000000002a0.6500000000000002,0.6500000000000002,0,0,1,-0.7000000000000002,-0.7000000000000002v-2.2a0.6700000000000004,0.6700000000000004,0,0,0,-0.6000000000000002,-0.7000000000000002a0.6700000000000004,0.6700000000000004,0,0,0,0.6000000000000002,-0.7000000000000002v-2.2a0.6500000000000002,0.6500000000000002,0,0,1,0.7000000000000002,-0.7000000000000002Z" style="fill:hotpink;stroke:hotpink;vector-effect:non-scaling-stroke;stroke-width:8px" id="e5_shape" transform="matrix(50.0133 0 0 50.0133 397.792 357.181)"/><path d="M2.83355146632622,-5.265112l0,0a0.7500000000000002,0.7500000000000002,0,0,0,-1,0.6000000000000002v2.3a0.7000000000000002,0.7000000000000002,0,0,1,-0.5,0.7000000000000002a0.7000000000000002,0.7000000000000002,0,0,1,0.5,0.7000000000000002v2.3a0.7500000000000002,0.7500000000000002,0,0,0,1,0.6000000000000002a0.6500000000000002,0.6500000000000002,0,0,1,-0.7000000000000002,-0.7000000000000002v-2.2a0.6700000000000004,0.6700000000000004,0,0,0,-0.6000000000000002,-0.7000000000000002a0.6700000000000004,0.6700000000000004,0,0,0,0.6000000000000002,-0.7000000000000002v-2.2a0.6500000000000002,0.6500000000000002,0,0,1,0.7000000000000002,-0.7000000000000002Z" style="fill:hotpink;stroke:hotpink;vector-effect:non-scaling-stroke;stroke-width:8px" id="e1_shape" transform="matrix(-48.1898 0 0 -48.1898 808.403 198.356)"/><text style="fill:deepskyblue;font-family:Courier New;font-size:30px;font-weight:bold" x="410.1" y="152.361" id="e6_texte" transform="matrix(9.04567 0 0 9.04567 -3341.27 -1030.38)">dr</text></svg>