<svg version="1.1" id="Layer_1" xmlns="http://www.w3.org/2000/svg" xmlns:xlink="http://www.w3.org/1999/xlink" x="0px" y="0px"
	 width="100%" viewBox="0 0 500 500" enable-background="new 0 0 500 500" xml:space="preserve">
<path fill="#000000" opacity="1.000000" stroke="none" 
	d="
M335.000000,501.000000 
	C223.333359,501.000000 112.166718,501.000000 1.000060,501.000000 
	C1.000040,334.333405 1.000040,167.666794 1.000020,1.000149 
	C167.666565,1.000099 334.333130,1.000099 500.999756,1.000050 
	C500.999847,167.666519 500.999847,334.333038 500.999939,500.999786 
	C445.833344,501.000000 390.666656,501.000000 335.000000,501.000000 
M271.499969,336.885620 
	C295.824249,336.885620 320.148560,336.887238 344.472839,336.885010 
	C358.543091,336.883728 367.972504,327.704773 368.193817,313.626740 
	C368.322144,305.465118 368.218262,297.299805 368.218445,289.136169 
	C368.218842,270.696991 362.141144,261.812927 345.051819,255.271530 
	C354.426727,238.405579 353.119293,224.680862 341.212738,214.971207 
	C330.349792,206.112610 315.017273,206.437286 304.632446,215.667831 
	C299.285767,220.420242 296.245117,226.373535 295.342102,233.375778 
	C294.121918,242.837906 297.751953,250.740341 304.182739,257.755524 
	C295.454926,262.074371 290.756744,269.154053 287.957794,279.162445 
	C286.934265,275.987610 286.391785,274.299927 285.846161,272.613220 
	C282.825104,263.273926 279.422272,260.798065 269.425507,260.790344 
	C247.766876,260.773590 226.108139,260.755585 204.449585,260.799072 
	C195.200638,260.817657 191.686874,265.626556 194.516968,274.283020 
	C200.083374,291.309143 205.657486,308.332916 211.291840,325.336639 
	C214.241058,334.237000 217.961227,336.855194 227.515854,336.877045 
	C241.843811,336.909851 256.171906,336.885620 271.499969,336.885620 
M205.563950,195.931427 
	C202.075745,195.938828 198.561813,195.678253 195.104797,196.010391 
	C188.290558,196.665085 185.746765,199.537704 185.559586,206.317886 
	C185.472321,209.478958 185.540283,212.644348 185.540222,215.807770 
	C185.540009,229.844864 188.361862,232.531418 202.631714,231.934235 
	C204.444275,231.858383 206.260849,231.515366 208.042740,231.140213 
	C212.732758,230.152863 215.264496,227.339523 215.246735,222.411530 
	C215.228134,217.250443 215.310394,212.088715 215.263092,206.928040 
	C215.195648,199.570068 213.870102,197.982910 205.563950,195.931427 
M177.259109,208.501389 
	C177.814972,198.877686 175.980957,196.855545 166.527069,196.767868 
	C162.197662,196.727722 157.848358,196.539383 153.550140,196.908356 
	C152.356293,197.010834 150.377075,198.841263 150.347488,199.922424 
	C150.092484,209.241135 150.126190,218.571289 150.307159,227.893478 
	C150.327438,228.938568 151.685059,230.703964 152.616287,230.843674 
	C155.295609,231.245636 158.074265,230.985504 161.197937,230.985504 
	C161.197937,226.841965 161.197937,223.571396 161.197937,220.216003 
	C164.045883,220.216003 166.488174,220.216003 169.404099,220.216003 
	C169.643784,223.772461 169.872208,227.161926 170.114960,230.763809 
	C173.575455,230.763809 176.671616,230.763809 179.719833,230.763809 
	C181.953323,223.600769 180.918137,217.986984 176.827164,212.805130 
	C176.312973,212.153854 176.961761,210.584457 177.259109,208.501389 
M235.736145,206.010849 
	C247.166061,206.010300 247.166061,206.010300 245.099808,196.811325 
	C240.098022,196.811325 234.964172,196.674728 229.840668,196.846710 
	C223.746048,197.051270 221.079865,199.626495 220.780304,205.159164 
	C220.282761,214.348022 221.816559,216.793213 228.780502,217.936401 
	C231.301117,218.350174 233.818558,218.783279 236.337463,219.207581 
	C236.347519,219.897003 236.357559,220.586441 236.367615,221.275879 
	C231.258270,221.573868 226.148926,221.871857 221.170197,222.162231 
	C221.170197,225.228577 221.170197,227.966156 221.170197,231.010544 
	C226.396500,231.010544 231.214386,231.031387 236.032043,231.006058 
	C245.039169,230.958710 247.726990,228.239365 247.573425,219.381882 
	C247.459152,212.789398 245.828720,210.916824 239.253220,209.837692 
	C237.609909,209.567993 235.915558,209.472015 234.338364,208.989746 
	C233.438278,208.714569 232.727402,207.820648 231.931335,207.205322 
	C232.889694,206.807327 233.848053,206.409332 235.736145,206.010849 
M275.190735,211.103012 
	C271.071320,210.060715 266.951935,209.018402 262.832520,207.976089 
	C262.961914,207.296127 263.091309,206.616150 263.220703,205.936188 
	C267.715179,205.936188 272.209625,205.936188 276.781860,205.936188 
	C276.781860,202.531509 276.781860,199.924423 276.781860,197.240707 
	C275.925323,197.059280 275.292633,196.813950 274.657928,196.808777 
	C270.338440,196.773605 266.015778,196.690735 261.699402,196.810867 
	C254.997131,196.997452 252.193710,199.567139 251.967331,205.482971 
	C251.613190,214.737473 253.180923,216.915970 260.769836,218.020294 
	C263.180267,218.371063 265.549774,219.002823 267.938019,219.506012 
	C267.874237,220.186203 267.810425,220.866409 267.746643,221.546616 
	C262.617401,221.546616 257.488159,221.546616 252.396606,221.546616 
	C252.396606,225.255020 252.396606,227.947739 252.396606,230.589584 
	C253.299667,230.782181 253.776672,230.969421 254.254913,230.972580 
	C258.740814,231.002365 263.227112,230.981369 267.712982,231.013687 
	C271.851257,231.043533 275.783875,230.549011 277.931519,226.361816 
	C280.010712,222.308060 278.918152,215.042358 275.190735,211.103012 
M206.845581,177.889984 
	C212.460953,177.097717 214.733612,173.621780 214.664871,168.216919 
	C214.610031,163.904053 214.694366,159.587982 214.565079,155.277878 
	C214.425079,150.610886 211.837189,147.596344 207.301620,147.296219 
	C201.077942,146.884399 194.806580,147.193207 188.311554,147.193207 
	C188.311554,157.556732 188.311554,167.551468 188.311554,177.957611 
	C194.427460,177.957611 200.196930,177.957611 206.845581,177.889984 
M313.806824,178.012466 
	C318.304016,177.994141 322.811157,178.157593 327.296021,177.913116 
	C333.399933,177.580414 335.935516,174.808228 336.034973,168.721451 
	C336.105743,164.391769 336.003448,160.059494 336.051819,155.729187 
	C336.104706,150.994186 333.762115,147.770767 329.206696,147.410782 
	C322.832794,146.907120 316.389374,147.283722 309.434540,147.283722 
	C309.434540,156.969162 309.345581,166.265930 309.584198,175.554260 
	C309.605957,176.401199 311.728210,177.194183 313.806824,178.012466 
M246.239929,167.852509 
	C245.560623,164.306534 245.313919,160.607452 244.123016,157.242538 
	C240.139420,145.987030 240.006851,145.997238 228.394150,147.046753 
	C227.230728,147.151917 225.526779,147.722321 225.103806,148.583038 
	C220.583755,157.780579 218.006592,167.352081 220.165009,177.607758 
	C223.177765,177.607758 225.900284,177.607758 228.750031,177.607758 
	C228.941849,175.143631 229.103409,173.068268 229.257538,171.088257 
	C231.837158,171.088257 234.082764,171.088257 236.381744,171.088257 
	C236.607071,173.460526 236.806015,175.555054 237.019104,177.798462 
	C240.128586,177.798462 242.902145,177.798462 246.239868,177.798462 
	C246.239868,174.643890 246.239868,171.694122 246.239929,167.852509 
M256.330200,176.479660 
	C260.954102,176.953674 265.630981,177.998260 270.171783,177.576782 
	C271.660583,177.438583 272.869263,173.534378 274.079956,171.284531 
	C278.189331,163.647995 278.318573,155.564941 277.108185,147.213165 
	C273.855865,147.213165 271.075745,147.213165 268.023468,147.213165 
	C267.182709,154.339249 269.269257,161.896317 264.235748,168.432449 
	C260.436340,163.263962 260.614014,157.739853 261.039551,152.358093 
	C261.401520,147.780197 259.655762,146.305145 255.384384,146.965515 
	C253.985992,147.181717 252.556534,147.197052 251.457184,147.280334 
	C249.291336,157.729095 251.807068,166.876068 256.330200,176.479660 
M302.095490,147.021423 
	C295.802032,147.021423 289.508545,147.021423 282.865295,147.021423 
	C282.865295,150.139267 282.865295,152.875061 282.865295,155.728027 
	C284.772186,155.924530 286.360443,156.088211 287.981049,156.255234 
	C287.981049,160.604614 287.981049,164.687531 287.981049,168.745560 
	C286.165833,168.996140 284.592712,169.213318 283.026428,169.429550 
	C283.026428,172.438889 283.026428,175.114929 283.026428,177.550735 
	C290.268280,177.550735 296.982361,177.550735 303.745270,177.550735 
	C304.088837,172.888367 305.770721,167.921539 298.447113,168.824890 
	C298.447113,164.341934 298.447113,160.265930 298.447113,156.249496 
	C300.340546,156.011703 301.936920,155.811218 304.310272,155.513153 
	C303.835571,152.540436 303.412811,149.893036 302.095490,147.021423 
z"/>
<path fill="#ECECEC" opacity="1.000000" stroke="none" 
	d="
M270.999939,336.885620 
	C256.171906,336.885620 241.843811,336.909851 227.515854,336.877045 
	C217.961227,336.855194 214.241058,334.237000 211.291840,325.336639 
	C205.657486,308.332916 200.083374,291.309143 194.516968,274.283020 
	C191.686874,265.626556 195.200638,260.817657 204.449585,260.799072 
	C226.108139,260.755585 247.766876,260.773590 269.425507,260.790344 
	C279.422272,260.798065 282.825104,263.273926 285.846161,272.613220 
	C286.391785,274.299927 286.934265,275.987610 287.957794,279.162445 
	C290.756744,269.154053 295.454926,262.074371 304.182739,257.755524 
	C297.751953,250.740341 294.121918,242.837906 295.342102,233.375778 
	C296.245117,226.373535 299.285767,220.420242 304.632446,215.667831 
	C315.017273,206.437286 330.349792,206.112610 341.212738,214.971207 
	C353.119293,224.680862 354.426727,238.405579 345.051819,255.271530 
	C362.141144,261.812927 368.218842,270.696991 368.218445,289.136169 
	C368.218262,297.299805 368.322144,305.465118 368.193817,313.626740 
	C367.972504,327.704773 358.543091,336.883728 344.472839,336.885010 
	C320.148560,336.887238 295.824249,336.885620 270.999939,336.885620 
M207.090256,301.316895 
	C209.613297,308.870636 212.121170,316.429443 214.663559,323.976685 
	C217.287613,331.766296 219.205658,333.165405 227.255798,333.166565 
	C266.417999,333.172241 305.585388,332.815918 344.739258,333.386688 
	C356.312714,333.555389 365.036469,323.444336 364.866669,313.251160 
	C364.711304,303.921478 364.898468,294.586639 364.819000,285.255035 
	C364.700012,271.284149 355.168213,260.610352 341.285645,258.731110 
	C339.924744,258.546875 338.584991,258.206024 336.977631,257.886627 
	C350.349243,243.895615 351.503601,229.777359 340.473877,219.082016 
	C330.619232,209.526138 314.911041,209.793289 305.494446,219.676926 
	C294.899200,230.797623 296.944519,245.454346 311.340576,259.024139 
	C293.734528,263.124878 291.624054,277.733582 289.068329,292.158813 
	C286.238770,285.278534 284.082825,278.667633 281.851196,272.082397 
	C279.886414,266.284607 277.327606,264.226959 271.203827,264.202667 
	C248.706757,264.113495 226.208893,264.114319 203.711807,264.203644 
	C197.851990,264.226929 195.943771,267.054749 197.741959,272.622559 
	C200.752594,281.944427 203.860291,291.234985 207.090256,301.316895 
z"/>
<path fill="#F9F9F9" opacity="1.000000" stroke="none" 
	d="
M205.973969,195.969025 
	C213.870102,197.982910 215.195648,199.570068 215.263092,206.928040 
	C215.310394,212.088715 215.228134,217.250443 215.246735,222.411530 
	C215.264496,227.339523 212.732758,230.152863 208.042740,231.140213 
	C206.260849,231.515366 204.444275,231.858383 202.631714,231.934235 
	C188.361862,232.531418 185.540009,229.844864 185.540222,215.807770 
	C185.540283,212.644348 185.472321,209.478958 185.559586,206.317886 
	C185.746765,199.537704 188.290558,196.665085 195.104797,196.010391 
	C198.561813,195.678253 202.075745,195.938828 205.973969,195.969025 
M197.996246,205.286850 
	C197.441666,209.715698 196.863632,214.141785 196.340485,218.574341 
	C195.972504,221.692337 197.810318,222.673279 200.521103,222.712769 
	C203.413086,222.754883 204.723984,221.414398 204.543274,218.435120 
	C204.382980,215.791901 204.303864,213.111420 204.556656,210.482742 
	C204.984299,206.035934 203.172882,204.286682 197.996246,205.286850 
M189.975815,210.789276 
	C189.975815,214.346298 189.975815,217.903336 189.975815,221.460358 
	C190.507233,221.445312 191.038651,221.430267 191.570068,221.415207 
	C191.570068,216.169449 191.570068,210.923676 191.570068,205.677917 
	C191.268723,205.629990 190.967392,205.582077 190.666046,205.534164 
	C190.436020,206.986374 190.205994,208.438599 189.975815,210.789276 
M194.918243,202.013168 
	C195.030365,201.897247 195.178818,201.798447 195.243851,201.660355 
	C195.303131,201.534454 195.272003,201.365982 195.280731,201.216263 
	C193.913467,201.523361 192.546204,201.830460 191.178940,202.137558 
	C191.371811,202.661957 191.564682,203.186340 191.757538,203.710724 
	C192.640808,203.240982 193.524078,202.771240 194.918243,202.013168 
M199.086441,227.725220 
	C198.508545,227.114822 197.930634,226.504440 197.352737,225.894043 
	C197.095688,226.233521 196.838654,226.572998 196.581604,226.912476 
	C197.214325,227.234512 197.847046,227.556549 199.086441,227.725220 
M203.523056,226.624237 
	C203.468018,226.838470 203.412994,227.052704 203.357956,227.266937 
	C203.493805,227.129059 203.629654,226.991165 203.523056,226.624237 
z"/>
<path fill="#F9F9F9" opacity="1.000000" stroke="none" 
	d="
M177.165405,208.970917 
	C176.961761,210.584457 176.312973,212.153854 176.827164,212.805130 
	C180.918137,217.986984 181.953323,223.600769 179.719833,230.763809 
	C176.671616,230.763809 173.575455,230.763809 170.114960,230.763809 
	C169.872208,227.161926 169.643784,223.772461 169.404099,220.216003 
	C166.488174,220.216003 164.045883,220.216003 161.197937,220.216003 
	C161.197937,223.571396 161.197937,226.841965 161.197937,230.985504 
	C158.074265,230.985504 155.295609,231.245636 152.616287,230.843674 
	C151.685059,230.703964 150.327438,228.938568 150.307159,227.893478 
	C150.126190,218.571289 150.092484,209.241135 150.347488,199.922424 
	C150.377075,198.841263 152.356293,197.010834 153.550140,196.908356 
	C157.848358,196.539383 162.197662,196.727722 166.527069,196.767868 
	C175.980957,196.855545 177.814972,198.877686 177.165405,208.970917 
M169.679321,202.478683 
	C169.120239,202.446274 168.561157,202.413864 168.002075,202.381439 
	C167.994400,202.542557 167.986725,202.703674 167.979050,202.864792 
	C168.618988,202.946167 169.258926,203.027557 170.030228,203.658203 
	C170.359879,203.953018 170.689529,204.247833 171.019196,204.542633 
	C171.192413,204.325653 171.365616,204.108673 171.538834,203.891693 
	C171.038010,203.572693 170.537170,203.253708 169.679321,202.478683 
M174.973785,217.525131 
	C174.857498,217.253433 174.741211,216.981735 174.624924,216.710037 
	C174.502792,216.795609 174.380676,216.881180 174.258560,216.966751 
	C174.505707,217.311172 174.752853,217.655594 174.902100,218.787445 
	C174.622910,220.937454 174.343719,223.087448 174.064529,225.237457 
	C174.768234,225.228561 175.471954,225.219681 176.175659,225.210800 
	C175.783768,222.807205 175.391891,220.403595 174.973785,217.525131 
M166.544754,210.151352 
	C167.960846,204.909790 164.401215,206.020050 161.347794,205.964386 
	C161.347794,207.774612 161.347794,209.310669 161.347794,211.158829 
	C163.073181,211.014206 164.512497,210.893570 166.544754,210.151352 
M155.014587,214.489136 
	C155.014587,218.345718 155.014587,222.202301 155.014587,226.058884 
	C155.246765,226.054688 155.478958,226.050491 155.711136,226.046310 
	C155.711136,217.927277 155.711136,209.808243 155.711136,201.689209 
	C155.479401,201.687103 155.247665,201.684982 155.015930,201.682877 
	C155.015930,205.623505 155.015930,209.564133 155.014587,214.489136 
M170.024353,214.122009 
	C170.367691,214.321869 170.711014,214.521744 171.054337,214.721619 
	C171.139313,214.000488 171.224289,213.279343 171.309250,212.558197 
	C170.892380,212.884811 170.475510,213.211411 170.024353,214.122009 
M168.757248,214.822998 
	C168.588150,214.878876 168.419067,214.934753 168.249985,214.990646 
	C168.420090,215.045151 168.590179,215.099670 168.757248,214.822998 
z"/>
<path fill="#F9F9F9" opacity="1.000000" stroke="none" 
	d="
M235.271271,206.011093 
	C233.848053,206.409332 232.889694,206.807327 231.931335,207.205322 
	C232.727402,207.820648 233.438278,208.714569 234.338364,208.989746 
	C235.915558,209.472015 237.609909,209.567993 239.253220,209.837692 
	C245.828720,210.916824 247.459152,212.789398 247.573425,219.381882 
	C247.726990,228.239365 245.039169,230.958710 236.032043,231.006058 
	C231.214386,231.031387 226.396500,231.010544 221.170197,231.010544 
	C221.170197,227.966156 221.170197,225.228577 221.170197,222.162231 
	C226.148926,221.871857 231.258270,221.573868 236.367615,221.275879 
	C236.357559,220.586441 236.347519,219.897003 236.337463,219.207581 
	C233.818558,218.783279 231.301117,218.350174 228.780502,217.936401 
	C221.816559,216.793213 220.282761,214.348022 220.780304,205.159164 
	C221.079865,199.626495 223.746048,197.051270 229.840668,196.846710 
	C234.964172,196.674728 240.098022,196.811325 245.099808,196.811325 
	C247.166061,206.010300 247.166061,206.010300 235.271271,206.011093 
z"/>
<path fill="#FAFAFA" opacity="1.000000" stroke="none" 
	d="
M275.522949,211.312317 
	C278.918152,215.042358 280.010712,222.308060 277.931519,226.361816 
	C275.783875,230.549011 271.851257,231.043533 267.712982,231.013687 
	C263.227112,230.981369 258.740814,231.002365 254.254913,230.972580 
	C253.776672,230.969421 253.299667,230.782181 252.396606,230.589584 
	C252.396606,227.947739 252.396606,225.255020 252.396606,221.546616 
	C257.488159,221.546616 262.617401,221.546616 267.746643,221.546616 
	C267.810425,220.866409 267.874237,220.186203 267.938019,219.506012 
	C265.549774,219.002823 263.180267,218.371063 260.769836,218.020294 
	C253.180923,216.915970 251.613190,214.737473 251.967331,205.482971 
	C252.193710,199.567139 254.997131,196.997452 261.699402,196.810867 
	C266.015778,196.690735 270.338440,196.773605 274.657928,196.808777 
	C275.292633,196.813950 275.925323,197.059280 276.781860,197.240707 
	C276.781860,199.924423 276.781860,202.531509 276.781860,205.936188 
	C272.209625,205.936188 267.715179,205.936188 263.220703,205.936188 
	C263.091309,206.616150 262.961914,207.296127 262.832520,207.976089 
	C266.951935,209.018402 271.071320,210.060715 275.522949,211.312317 
z"/>
<path fill="#F6F6F6" opacity="1.000000" stroke="none" 
	d="
M206.406006,177.923798 
	C200.196930,177.957611 194.427460,177.957611 188.311554,177.957611 
	C188.311554,167.551468 188.311554,157.556732 188.311554,147.193207 
	C194.806580,147.193207 201.077942,146.884399 207.301620,147.296219 
	C211.837189,147.596344 214.425079,150.610886 214.565079,155.277878 
	C214.694366,159.587982 214.610031,163.904053 214.664871,168.216919 
	C214.733612,173.621780 212.460953,177.097717 206.406006,177.923798 
M198.477036,169.008148 
	C200.560867,168.561005 204.312988,168.391937 204.441818,167.618958 
	C205.021698,164.139938 204.953201,160.407837 204.211456,156.962234 
	C204.040131,156.166290 200.296860,156.139282 197.886719,155.702087 
	C197.886719,160.419754 197.886719,164.343063 198.477036,169.008148 
z"/>
<path fill="#F8F8F8" opacity="1.000000" stroke="none" 
	d="
M313.340942,178.012329 
	C311.728210,177.194183 309.605957,176.401199 309.584198,175.554260 
	C309.345581,166.265930 309.434540,156.969162 309.434540,147.283722 
	C316.389374,147.283722 322.832794,146.907120 329.206696,147.410782 
	C333.762115,147.770767 336.104706,150.994186 336.051819,155.729187 
	C336.003448,160.059494 336.105743,164.391769 336.034973,168.721451 
	C335.935516,174.808228 333.399933,177.580414 327.296021,177.913116 
	C322.811157,178.157593 318.304016,177.994141 313.340942,178.012329 
M330.979736,153.512329 
	C330.859039,153.240555 330.738342,152.968796 330.617645,152.697037 
	C330.495209,152.784363 330.261780,152.941940 330.266205,152.948929 
	C330.494598,153.309753 330.743256,153.657761 330.951050,154.589005 
	C330.884705,155.240219 330.818329,155.891418 330.751984,156.542633 
	C331.106934,156.488892 331.461853,156.435165 331.816803,156.381424 
	C331.548187,155.583954 331.279602,154.786484 330.979736,153.512329 
M319.765106,156.130447 
	C319.481232,160.316803 319.197327,164.503174 318.905975,168.799347 
	C321.656525,168.799347 323.703949,168.799347 325.912781,168.799347 
	C325.912781,164.440811 325.912781,160.407593 325.912781,155.968063 
	C323.928314,155.968063 322.304443,155.968063 319.765106,156.130447 
M316.106628,151.978836 
	C319.576965,151.978836 323.047333,151.978836 326.517670,151.978836 
	C322.762085,149.282440 318.736420,149.690918 314.654907,150.689606 
	C314.872711,151.078888 315.090515,151.468170 316.106628,151.978836 
M317.944397,175.008423 
	C320.242493,175.008423 322.540558,175.008423 324.838654,175.008423 
	C324.824768,174.785477 324.810883,174.562515 324.796967,174.339569 
	C321.611847,174.339569 318.426727,174.339569 315.241608,174.339569 
	C315.244141,174.515747 315.246643,174.691940 315.249176,174.868118 
	C315.881165,174.914673 316.513153,174.961212 317.944397,175.008423 
M329.688110,172.588913 
	C329.979889,172.370789 330.271667,172.152664 330.563446,171.934525 
	C330.385193,171.748688 330.206940,171.562866 330.028687,171.377045 
	C329.799774,171.659332 329.570862,171.941605 329.688110,172.588913 
M327.608154,172.519592 
	C327.608154,172.519592 327.471161,172.606186 327.608154,172.519592 
z"/>
<path fill="#FAFAFA" opacity="1.000000" stroke="none" 
	d="
M246.239899,168.298431 
	C246.239868,171.694122 246.239868,174.643890 246.239868,177.798462 
	C242.902145,177.798462 240.128586,177.798462 237.019104,177.798462 
	C236.806015,175.555054 236.607071,173.460526 236.381744,171.088257 
	C234.082764,171.088257 231.837158,171.088257 229.257538,171.088257 
	C229.103409,173.068268 228.941849,175.143631 228.750031,177.607758 
	C225.900284,177.607758 223.177765,177.607758 220.165009,177.607758 
	C218.006592,167.352081 220.583755,157.780579 225.103806,148.583038 
	C225.526779,147.722321 227.230728,147.151917 228.394150,147.046753 
	C240.006851,145.997238 240.139420,145.987030 244.123016,157.242538 
	C245.313919,160.607452 245.560623,164.306534 246.239899,168.298431 
M231.008347,157.757797 
	C230.629440,159.109726 230.250534,160.461670 229.801178,162.064972 
	C232.042374,162.064972 233.820511,162.064972 236.654053,162.064972 
	C234.014053,160.380768 236.654480,155.147141 231.008347,157.757797 
M233.382309,150.003265 
	C232.420868,150.209305 231.459412,150.415344 230.497971,150.621384 
	C230.504074,150.991058 230.510193,151.360748 230.516296,151.730423 
	C232.231842,151.920761 233.947388,152.111099 237.187378,152.470566 
	C235.367889,151.028580 234.739166,150.530319 233.382309,150.003265 
M226.343918,155.489212 
	C226.352875,155.654495 226.330292,155.830093 226.379913,155.982101 
	C226.426514,156.124802 226.549454,156.242569 226.638794,156.371323 
	C227.478577,155.319931 228.318375,154.268555 229.158157,153.217163 
	C228.784012,152.978210 228.409866,152.739243 228.035721,152.500290 
	C227.547073,153.302414 227.058411,154.104538 226.343918,155.489212 
M225.560959,161.292664 
	C225.291855,161.010574 225.022751,160.728470 224.753647,160.446381 
	C224.636902,160.557922 224.412506,160.760315 224.418900,160.767883 
	C224.670029,161.065353 224.942169,161.345093 225.560959,161.292664 
M239.438232,158.707077 
	C239.707718,158.989548 239.977219,159.272034 240.246704,159.554520 
	C240.363632,159.442825 240.588318,159.240143 240.581924,159.232544 
	C240.330429,158.934662 240.057892,158.654541 239.438232,158.707077 
M239.404694,156.482193 
	C239.404694,156.482193 239.522491,156.410538 239.404694,156.482193 
z"/>
<path fill="#F6F6F6" opacity="1.000000" stroke="none" 
	d="
M256.177307,176.103760 
	C251.807068,166.876068 249.291336,157.729095 251.457184,147.280334 
	C252.556534,147.197052 253.985992,147.181717 255.384384,146.965515 
	C259.655762,146.305145 261.401520,147.780197 261.039551,152.358093 
	C260.614014,157.739853 260.436340,163.263962 264.235748,168.432449 
	C269.269257,161.896317 267.182709,154.339249 268.023468,147.213165 
	C271.075745,147.213165 273.855865,147.213165 277.108185,147.213165 
	C278.318573,155.564941 278.189331,163.647995 274.079956,171.284531 
	C272.869263,173.534378 271.660583,177.438583 270.171783,177.576782 
	C265.630981,177.998260 260.954102,176.953674 256.177307,176.103760 
z"/>
<path fill="#F8F8F8" opacity="1.000000" stroke="none" 
	d="
M302.542786,147.133530 
	C303.412811,149.893036 303.835571,152.540436 304.310272,155.513153 
	C301.936920,155.811218 300.340546,156.011703 298.447113,156.249496 
	C298.447113,160.265930 298.447113,164.341934 298.447113,168.824890 
	C305.770721,167.921539 304.088837,172.888367 303.745270,177.550735 
	C296.982361,177.550735 290.268280,177.550735 283.026428,177.550735 
	C283.026428,175.114929 283.026428,172.438889 283.026428,169.429550 
	C284.592712,169.213318 286.165833,168.996140 287.981049,168.745560 
	C287.981049,164.687531 287.981049,160.604614 287.981049,156.255234 
	C286.360443,156.088211 284.772186,155.924530 282.865295,155.728027 
	C282.865295,152.875061 282.865295,150.139267 282.865295,147.021423 
	C289.508545,147.021423 295.802032,147.021423 302.542786,147.133530 
z"/>
<path fill="#141414" opacity="1.000000" stroke="none" 
	d="
M207.008682,300.927795 
	C203.860291,291.234985 200.752594,281.944427 197.741959,272.622559 
	C195.943771,267.054749 197.851990,264.226929 203.711807,264.203644 
	C226.208893,264.114319 248.706757,264.113495 271.203827,264.202667 
	C277.327606,264.226959 279.886414,266.284607 281.851196,272.082397 
	C284.082825,278.667633 286.238770,285.278534 289.068329,292.158813 
	C291.624054,277.733582 293.734528,263.124878 311.340576,259.024139 
	C296.944519,245.454346 294.899200,230.797623 305.494446,219.676926 
	C314.911041,209.793289 330.619232,209.526138 340.473877,219.082016 
	C351.503601,229.777359 350.349243,243.895615 336.977631,257.886627 
	C338.584991,258.206024 339.924744,258.546875 341.285645,258.731110 
	C355.168213,260.610352 364.700012,271.284149 364.819000,285.255035 
	C364.898468,294.586639 364.711304,303.921478 364.866669,313.251160 
	C365.036469,323.444336 356.312714,333.555389 344.739258,333.386688 
	C305.585388,332.815918 266.417999,333.172241 227.255798,333.166565 
	C219.205658,333.165405 217.287613,331.766296 214.663559,323.976685 
	C212.121170,316.429443 209.613297,308.870636 207.008682,300.927795 
M341.511414,284.608795 
	C341.736176,282.716522 341.960938,280.824280 342.185699,278.932037 
	C342.705780,278.968964 343.225891,279.005920 343.745972,279.042847 
	C343.884674,280.404602 344.137756,281.765869 344.143524,283.128174 
	C344.180054,291.789673 344.005493,300.455353 344.223236,309.111511 
	C344.345123,313.958923 342.190643,315.596313 337.616882,315.539703 
	C326.624908,315.403656 315.629059,315.412537 304.637299,315.557251 
	C302.026917,315.591583 299.426575,316.389496 296.736755,316.850739 
	C298.234344,321.902893 299.438324,325.964447 300.683075,330.163513 
	C315.868958,330.163513 331.017365,330.278015 346.162903,330.119019 
	C354.756805,330.028809 361.453735,323.821045 361.778809,315.129791 
	C362.183044,304.321808 362.292755,293.460327 361.689880,282.668915 
	C361.072540,271.618439 352.636597,262.832855 341.651306,261.808838 
	C333.070862,261.008972 324.330841,260.910156 315.735321,261.526398 
	C303.746246,262.385925 297.168091,268.751740 294.602020,280.516571 
	C293.858612,283.924774 293.780029,287.571320 292.507111,290.752655 
	C289.084015,299.307892 293.474945,306.374481 295.469757,313.095612 
	C301.886932,313.095612 307.564819,313.095612 314.531189,313.095612 
	C307.650421,306.578705 302.375549,300.726379 304.199921,291.647217 
	C306.840881,299.091400 309.324799,306.361145 317.094574,310.357269 
	C324.890839,314.367004 332.968658,312.169922 341.511322,312.933380 
	C341.511322,303.490631 341.511322,294.535553 341.511414,284.608795 
M218.084534,325.246857 
	C219.282700,328.973175 221.886765,330.224152 225.714172,330.207275 
	C247.878113,330.109558 270.043335,330.072021 292.206543,330.230560 
	C296.898102,330.264069 297.562836,328.745789 296.150726,324.581696 
	C290.290070,307.299347 284.635498,289.946899 278.954498,272.604004 
	C277.758575,268.953186 275.352966,267.173889 271.547821,267.174469 
	C249.050156,267.177948 226.552414,267.203857 204.054901,267.146759 
	C200.404587,267.137482 199.256836,268.315399 200.496994,271.993652 
	C206.386490,289.461548 212.128479,306.979187 218.084534,325.246857 
M329.293762,215.885391 
	C319.839783,213.486313 310.978821,216.577087 305.545776,224.168900 
	C300.443329,231.298737 300.248779,241.128204 305.064301,248.495529 
	C310.087738,256.180969 318.877014,259.808014 327.968903,257.947449 
	C336.690399,256.162689 343.980652,248.157227 344.940918,239.310425 
	C346.060577,228.995010 340.663727,220.538559 329.293762,215.885391 
z"/>
<path fill="#0F0F0F" opacity="1.000000" stroke="none" 
	d="
M198.406204,205.185211 
	C203.172882,204.286682 204.984299,206.035934 204.556656,210.482742 
	C204.303864,213.111420 204.382980,215.791901 204.543274,218.435120 
	C204.723984,221.414398 203.413086,222.754883 200.521103,222.712769 
	C197.810318,222.673279 195.972504,221.692337 196.340485,218.574341 
	C196.863632,214.141785 197.441666,209.715698 198.406204,205.185211 
z"/>
<path fill="#C0C0C0" opacity="1.000000" stroke="none" 
	d="
M189.975891,210.340042 
	C190.205994,208.438599 190.436020,206.986374 190.666046,205.534164 
	C190.967392,205.582077 191.268723,205.629990 191.570068,205.677917 
	C191.570068,210.923676 191.570068,216.169449 191.570068,221.415207 
	C191.038651,221.430267 190.507233,221.445312 189.975815,221.460358 
	C189.975815,217.903336 189.975815,214.346298 189.975891,210.340042 
z"/>
<path fill="#F5F5F5" opacity="1.000000" stroke="none" 
	d="
M194.662796,202.157333 
	C193.524078,202.771240 192.640808,203.240982 191.757538,203.710724 
	C191.564682,203.186340 191.371811,202.661957 191.178940,202.137558 
	C192.546204,201.830460 193.913467,201.523361 195.280731,201.216263 
	C195.272003,201.365982 195.303131,201.534454 195.243851,201.660355 
	C195.178818,201.798447 195.030365,201.897247 194.662796,202.157333 
z"/>
<path fill="#F5F5F5" opacity="1.000000" stroke="none" 
	d="
M198.783112,227.801910 
	C197.847046,227.556549 197.214325,227.234512 196.581604,226.912476 
	C196.838654,226.572998 197.095688,226.233521 197.352737,225.894043 
	C197.930634,226.504440 198.508545,227.114822 198.783112,227.801910 
z"/>
<path fill="#F5F5F5" opacity="1.000000" stroke="none" 
	d="
M203.644287,226.738754 
	C203.629654,226.991165 203.493805,227.129059 203.357956,227.266937 
	C203.412994,227.052704 203.468018,226.838470 203.644287,226.738754 
z"/>
<path fill="#090909" opacity="1.000000" stroke="none" 
	d="
M166.248291,210.462143 
	C164.512497,210.893570 163.073181,211.014206 161.347794,211.158829 
	C161.347794,209.310669 161.347794,207.774612 161.347794,205.964386 
	C164.401215,206.020050 167.960846,204.909790 166.248291,210.462143 
z"/>
<path fill="#848484" opacity="1.000000" stroke="none" 
	d="
M155.015259,213.996948 
	C155.015930,209.564133 155.015930,205.623505 155.015930,201.682877 
	C155.247665,201.684982 155.479401,201.687103 155.711136,201.689209 
	C155.711136,209.808243 155.711136,217.927277 155.711136,226.046310 
	C155.478958,226.050491 155.246765,226.054688 155.014587,226.058884 
	C155.014587,222.202301 155.014587,218.345718 155.015259,213.996948 
z"/>
<path fill="#F6F6F6" opacity="1.000000" stroke="none" 
	d="
M174.951050,218.393723 
	C175.391891,220.403595 175.783768,222.807205 176.175659,225.210800 
	C175.471954,225.219681 174.768234,225.228561 174.064529,225.237457 
	C174.343719,223.087448 174.622910,220.937454 174.951050,218.393723 
z"/>
<path fill="#F6F6F6" opacity="1.000000" stroke="none" 
	d="
M170.041504,213.830017 
	C170.475510,213.211411 170.892380,212.884811 171.309265,212.558197 
	C171.224289,213.279343 171.139313,214.000488 171.054337,214.721619 
	C170.711014,214.521744 170.367691,214.321869 170.041504,213.830017 
z"/>
<path fill="#F6F6F6" opacity="1.000000" stroke="none" 
	d="
M170.036346,202.934723 
	C170.537170,203.253708 171.038010,203.572693 171.538834,203.891693 
	C171.365616,204.108673 171.192413,204.325653 171.019196,204.542633 
	C170.689529,204.247833 170.359879,203.953018 170.000793,203.341492 
	C169.971344,203.024765 170.036346,202.934723 170.036346,202.934723 
z"/>
<path fill="#F6F6F6" opacity="1.000000" stroke="none" 
	d="
M169.935104,203.066849 
	C169.258926,203.027557 168.618988,202.946167 167.979050,202.864792 
	C167.986725,202.703674 167.994400,202.542557 168.002075,202.381439 
	C168.561157,202.413864 169.120239,202.446274 169.857834,202.706696 
	C170.036346,202.934723 169.971344,203.024765 169.935104,203.066849 
z"/>
<path fill="#F6F6F6" opacity="1.000000" stroke="none" 
	d="
M168.758759,214.988586 
	C168.590179,215.099670 168.420090,215.045151 168.249985,214.990631 
	C168.419067,214.934753 168.588150,214.878876 168.758759,214.988586 
z"/>
<path fill="#F6F6F6" opacity="1.000000" stroke="none" 
	d="
M174.986893,217.762573 
	C174.752853,217.655594 174.505707,217.311172 174.258560,216.966751 
	C174.380676,216.881180 174.502792,216.795609 174.624924,216.710037 
	C174.741211,216.981735 174.857498,217.253433 174.986893,217.762573 
z"/>
<path fill="#030303" opacity="1.000000" stroke="none" 
	d="
M198.181885,168.637268 
	C197.886719,164.343063 197.886719,160.419754 197.886719,155.702087 
	C200.296860,156.139282 204.040131,156.166290 204.211456,156.962234 
	C204.953201,160.407837 205.021698,164.139938 204.441818,167.618958 
	C204.312988,168.391937 200.560867,168.561005 198.181885,168.637268 
z"/>
<path fill="#090909" opacity="1.000000" stroke="none" 
	d="
M320.222839,156.049255 
	C322.304443,155.968063 323.928314,155.968063 325.912781,155.968063 
	C325.912781,160.407593 325.912781,164.440811 325.912781,168.799347 
	C323.703949,168.799347 321.656525,168.799347 318.905975,168.799347 
	C319.197327,164.503174 319.481232,160.316803 320.222839,156.049255 
z"/>
<path fill="#F2F2F2" opacity="1.000000" stroke="none" 
	d="
M315.707489,151.918152 
	C315.090515,151.468170 314.872711,151.078888 314.654907,150.689606 
	C318.736420,149.690918 322.762085,149.282440 326.517670,151.978836 
	C323.047333,151.978836 319.576965,151.978836 315.707489,151.918152 
z"/>
<path fill="#F2F2F2" opacity="1.000000" stroke="none" 
	d="
M317.544769,175.008087 
	C316.513153,174.961212 315.881165,174.914673 315.249176,174.868118 
	C315.246643,174.691940 315.244141,174.515747 315.241608,174.339569 
	C318.426727,174.339569 321.611847,174.339569 324.796967,174.339569 
	C324.810883,174.562515 324.824768,174.785477 324.838654,175.008423 
	C322.540558,175.008423 320.242493,175.008423 317.544769,175.008087 
z"/>
<path fill="#F2F2F2" opacity="1.000000" stroke="none" 
	d="
M331.010986,153.989014 
	C331.279602,154.786484 331.548187,155.583954 331.816803,156.381424 
	C331.461853,156.435165 331.106934,156.488892 330.751984,156.542633 
	C330.818329,155.891418 330.884705,155.240219 330.975800,154.294235 
	C331.000549,153.999466 331.010986,153.989014 331.010986,153.989014 
z"/>
<path fill="#F2F2F2" opacity="1.000000" stroke="none" 
	d="
M329.515015,172.406403 
	C329.570862,171.941605 329.799774,171.659332 330.028687,171.377045 
	C330.206940,171.562866 330.385193,171.748688 330.563446,171.934540 
	C330.271667,172.152664 329.979889,172.370789 329.515015,172.406403 
z"/>
<path fill="#F2F2F2" opacity="1.000000" stroke="none" 
	d="
M330.995148,154.003296 
	C330.743256,153.657761 330.494598,153.309753 330.266205,152.948929 
	C330.261780,152.941940 330.495209,152.784363 330.617645,152.697021 
	C330.738342,152.968796 330.859039,153.240555 330.995361,153.750671 
	C331.010986,153.989014 331.000549,153.999466 330.995148,154.003296 
z"/>
<path fill="#F2F2F2" opacity="1.000000" stroke="none" 
	d="
M327.539673,172.562897 
	C327.471161,172.606186 327.608154,172.519592 327.539673,172.562897 
z"/>
<path fill="#0F0F0F" opacity="1.000000" stroke="none" 
	d="
M231.146591,157.379761 
	C236.654480,155.147141 234.014053,160.380768 236.654053,162.064972 
	C233.820511,162.064972 232.042374,162.064972 229.801178,162.064972 
	C230.250534,160.461670 230.629440,159.109726 231.146591,157.379761 
z"/>
<path fill="#F5F5F5" opacity="1.000000" stroke="none" 
	d="
M233.746384,150.017670 
	C234.739166,150.530319 235.367889,151.028580 237.187378,152.470566 
	C233.947388,152.111099 232.231842,151.920761 230.516296,151.730423 
	C230.510193,151.360748 230.504074,150.991058 230.497971,150.621384 
	C231.459412,150.415344 232.420868,150.209305 233.746384,150.017670 
z"/>
<path fill="#F5F5F5" opacity="1.000000" stroke="none" 
	d="
M226.456848,155.197937 
	C227.058411,154.104538 227.547073,153.302414 228.035721,152.500290 
	C228.409866,152.739243 228.784012,152.978210 229.158157,153.217163 
	C228.318375,154.268555 227.478577,155.319931 226.638794,156.371323 
	C226.549454,156.242569 226.426514,156.124802 226.379913,155.982101 
	C226.330292,155.830093 226.352875,155.654495 226.456848,155.197937 
z"/>
<path fill="#F5F5F5" opacity="1.000000" stroke="none" 
	d="
M225.386261,161.459900 
	C224.942169,161.345093 224.670029,161.065353 224.418900,160.767883 
	C224.412506,160.760315 224.636902,160.557922 224.753647,160.446381 
	C225.022751,160.728470 225.291855,161.010574 225.386261,161.459900 
z"/>
<path fill="#F5F5F5" opacity="1.000000" stroke="none" 
	d="
M239.613174,158.539581 
	C240.057892,158.654541 240.330429,158.934662 240.581924,159.232544 
	C240.588318,159.240143 240.363632,159.442825 240.246704,159.554504 
	C239.977219,159.272034 239.707718,158.989548 239.613174,158.539581 
z"/>
<path fill="#F5F5F5" opacity="1.000000" stroke="none" 
	d="
M239.463593,156.446365 
	C239.522491,156.410538 239.404694,156.482193 239.463593,156.446365 
z"/>
<path fill="#EAEAEA" opacity="1.000000" stroke="none" 
	d="
M341.511353,285.094604 
	C341.511322,294.535553 341.511322,303.490631 341.511322,312.933380 
	C332.968658,312.169922 324.890839,314.367004 317.094574,310.357269 
	C309.324799,306.361145 306.840881,299.091400 304.199921,291.647217 
	C302.375549,300.726379 307.650421,306.578705 314.531189,313.095612 
	C307.564819,313.095612 301.886932,313.095612 295.469757,313.095612 
	C293.474945,306.374481 289.084015,299.307892 292.507111,290.752655 
	C293.780029,287.571320 293.858612,283.924774 294.602020,280.516571 
	C297.168091,268.751740 303.746246,262.385925 315.735321,261.526398 
	C324.330841,260.910156 333.070862,261.008972 341.651306,261.808838 
	C352.636597,262.832855 361.072540,271.618439 361.689880,282.668915 
	C362.292755,293.460327 362.183044,304.321808 361.778809,315.129791 
	C361.453735,323.821045 354.756805,330.028809 346.162903,330.119019 
	C331.017365,330.278015 315.868958,330.163513 300.683075,330.163513 
	C299.438324,325.964447 298.234344,321.902893 296.736755,316.850739 
	C299.426575,316.389496 302.026917,315.591583 304.637299,315.557251 
	C315.629059,315.412537 326.624908,315.403656 337.616882,315.539703 
	C342.190643,315.596313 344.345123,313.958923 344.223236,309.111511 
	C344.005493,300.455353 344.180054,291.789673 344.143524,283.128174 
	C344.137756,281.765869 343.884674,280.404602 343.745972,279.042847 
	C343.225891,279.005920 342.705780,278.968964 342.185699,278.932037 
	C341.960938,280.824280 341.736176,282.716522 341.511353,285.094604 
M347.881653,286.617859 
	C347.881653,294.115631 347.915680,301.613586 347.871826,309.111084 
	C347.830048,316.255432 345.019958,319.019257 337.843658,319.029572 
	C325.716736,319.046997 313.589783,319.034332 301.067719,319.034332 
	C302.012573,321.859192 302.826111,324.291412 303.661133,326.787872 
	C317.883636,326.787872 331.703735,326.907135 345.520386,326.739746 
	C352.917236,326.650146 357.869751,322.112396 358.123413,314.692047 
	C358.481476,304.218109 358.515656,293.704803 358.033325,283.238495 
	C357.554840,272.855591 349.639801,265.441498 339.159973,265.039459 
	C331.674561,264.752289 324.165710,264.771362 316.675995,264.974335 
	C306.574554,265.248077 299.965149,271.122742 298.062866,281.080231 
	C297.407410,284.511230 297.136841,288.083435 295.975311,291.335693 
	C293.716797,297.659576 295.279297,303.316406 298.054169,308.970612 
	C300.267212,308.970612 302.487335,308.970612 304.239746,308.970612 
	C302.717499,304.317230 301.099579,299.870209 299.829254,295.326019 
	C298.863464,291.871033 299.662262,288.693756 303.704071,288.098267 
	C307.788666,287.496521 309.045959,290.414642 309.529388,293.940491 
	C310.662933,302.207336 315.762299,307.228790 323.584930,308.816010 
	C328.140533,309.740356 333.037079,308.984253 337.966095,308.984253 
	C337.966095,299.480225 338.013153,290.499298 337.942627,281.519318 
	C337.914917,277.990295 339.185730,275.474243 342.950470,275.535797 
	C346.686890,275.596832 347.993561,278.190552 347.888031,281.664398 
	C347.847565,282.996094 347.881592,284.330048 347.881653,286.617859 
z"/>
<path fill="#EEEEEE" opacity="1.000000" stroke="none" 
	d="
M218.003769,324.862976 
	C212.128479,306.979187 206.386490,289.461548 200.496994,271.993652 
	C199.256836,268.315399 200.404587,267.137482 204.054901,267.146759 
	C226.552414,267.203857 249.050156,267.177948 271.547821,267.174469 
	C275.352966,267.173889 277.758575,268.953186 278.954498,272.604004 
	C284.635498,289.946899 290.290070,307.299347 296.150726,324.581696 
	C297.562836,328.745789 296.898102,330.264069 292.206543,330.230560 
	C270.043335,330.072021 247.878113,330.109558 225.714172,330.207275 
	C221.886765,330.224152 219.282700,328.973175 218.003769,324.862976 
M276.349640,276.170837 
	C275.826294,271.919159 273.545410,270.457336 269.223511,270.777588 
	C263.758240,271.182556 258.240173,270.875397 252.744904,270.875397 
	C236.623581,270.875397 220.502274,270.875397 203.893097,270.875397 
	C209.849609,288.943268 215.600937,306.589691 221.601593,324.150909 
	C222.014160,325.358246 224.284760,326.674042 225.700226,326.684143 
	C247.970993,326.842957 270.243225,326.795563 293.055573,326.795563 
	C287.520660,309.902527 282.112610,293.396606 276.349640,276.170837 
z"/>
<path fill="#EAEAEA" opacity="1.000000" stroke="none" 
	d="
M329.692261,215.963409 
	C340.663727,220.538559 346.060577,228.995010 344.940918,239.310425 
	C343.980652,248.157227 336.690399,256.162689 327.968903,257.947449 
	C318.877014,259.808014 310.087738,256.180969 305.064301,248.495529 
	C300.248779,241.128204 300.443329,231.298737 305.545776,224.168900 
	C310.978821,216.577087 319.839783,213.486313 329.692261,215.963409 
M310.953918,223.399490 
	C304.371490,230.801697 303.270966,238.682938 307.784821,246.094650 
	C311.799530,252.686752 319.802002,256.198853 326.996338,254.526108 
	C334.311646,252.825241 339.939667,247.054291 341.059479,240.105652 
	C342.307251,232.363297 339.120941,225.041183 332.853516,221.248169 
	C326.159760,217.197174 318.616302,217.795792 310.953918,223.399490 
z"/>
<path fill="#030303" opacity="1.000000" stroke="none" 
	d="
M347.881653,286.140442 
	C347.881592,284.330048 347.847565,282.996094 347.888031,281.664398 
	C347.993561,278.190552 346.686890,275.596832 342.950470,275.535797 
	C339.185730,275.474243 337.914917,277.990295 337.942627,281.519318 
	C338.013153,290.499298 337.966095,299.480225 337.966095,308.984253 
	C333.037079,308.984253 328.140533,309.740356 323.584930,308.816010 
	C315.762299,307.228790 310.662933,302.207336 309.529388,293.940491 
	C309.045959,290.414642 307.788666,287.496521 303.704071,288.098267 
	C299.662262,288.693756 298.863464,291.871033 299.829254,295.326019 
	C301.099579,299.870209 302.717499,304.317230 304.239746,308.970612 
	C302.487335,308.970612 300.267212,308.970612 298.054169,308.970612 
	C295.279297,303.316406 293.716797,297.659576 295.975311,291.335693 
	C297.136841,288.083435 297.407410,284.511230 298.062866,281.080231 
	C299.965149,271.122742 306.574554,265.248077 316.675995,264.974335 
	C324.165710,264.771362 331.674561,264.752289 339.159973,265.039459 
	C349.639801,265.441498 357.554840,272.855591 358.033325,283.238495 
	C358.515656,293.704803 358.481476,304.218109 358.123413,314.692047 
	C357.869751,322.112396 352.917236,326.650146 345.520386,326.739746 
	C331.703735,326.907135 317.883636,326.787872 303.661133,326.787872 
	C302.826111,324.291412 302.012573,321.859192 301.067719,319.034332 
	C313.589783,319.034332 325.716736,319.046997 337.843658,319.029572 
	C345.019958,319.019257 347.830048,316.255432 347.871826,309.111084 
	C347.915680,301.613586 347.881653,294.115631 347.881653,286.140442 
z"/>
<path fill="#020202" opacity="1.000000" stroke="none" 
	d="
M276.527100,276.530762 
	C282.112610,293.396606 287.520660,309.902527 293.055573,326.795563 
	C270.243225,326.795563 247.970993,326.842957 225.700226,326.684143 
	C224.284760,326.674042 222.014160,325.358246 221.601593,324.150909 
	C215.600937,306.589691 209.849609,288.943268 203.893097,270.875397 
	C220.502274,270.875397 236.623581,270.875397 252.744904,270.875397 
	C258.240173,270.875397 263.758240,271.182556 269.223511,270.777588 
	C273.545410,270.457336 275.826294,271.919159 276.527100,276.530762 
z"/>
<path fill="#030303" opacity="1.000000" stroke="none" 
	d="
M311.242798,223.169861 
	C318.616302,217.795792 326.159760,217.197174 332.853516,221.248169 
	C339.120941,225.041183 342.307251,232.363297 341.059479,240.105652 
	C339.939667,247.054291 334.311646,252.825241 326.996338,254.526108 
	C319.802002,256.198853 311.799530,252.686752 307.784821,246.094650 
	C303.270966,238.682938 304.371490,230.801697 311.242798,223.169861 
z"/>
</svg>